<svg width="171" height="64" viewBox="0 0 171 64" fill="none" xmlns="http://www.w3.org/2000/svg">
<g clip-path="url(#clip0_298_55)">
<path d="M3.65588 45.4024C2.75931 45.4072 1.89743 45.0598 1.25931 44.4366C0.621197 43.8133 0.258962 42.965 0.252078 42.0777L-0.00835048 3.36797C-0.0112575 2.92799 0.0734347 2.49175 0.24089 2.08416C0.408345 1.67658 0.655285 1.30562 0.967609 0.992473C1.27993 0.679327 1.65152 0.430123 2.06117 0.259093C2.47081 0.0880628 2.91049 -0.00144613 3.35509 -0.00432291C3.79969 -0.00719969 4.2405 0.076614 4.65237 0.242329C5.06424 0.408043 5.4391 0.652415 5.75553 0.961492C6.07197 1.27057 6.32379 1.6383 6.49661 2.04369C6.66944 2.44907 6.75989 2.88418 6.7628 3.32415L7.02322 42.0339C7.02562 42.4739 6.94043 42.9101 6.7725 43.3175C6.60458 43.7248 6.35721 44.0955 6.04452 44.4083C5.73183 44.7211 5.35995 44.9699 4.95011 45.1404C4.54026 45.311 4.10048 45.4 3.65588 45.4024Z" fill="white"/>
<path d="M81.7902 45.3824C81.3868 45.3851 80.9868 45.3091 80.613 45.1588C80.2393 45.0084 79.8992 44.7866 79.6121 44.5061C79.325 44.2256 79.0966 43.8918 78.9399 43.5239C78.7832 43.156 78.7013 42.7611 78.6989 42.3619L78.4515 4.64435C78.449 4.24532 78.5259 3.8497 78.6778 3.48008C78.8297 3.11046 79.0537 2.77407 79.337 2.49012C79.6203 2.20617 79.9574 1.98022 80.3289 1.82518C80.7005 1.67013 81.0992 1.58903 81.5025 1.58649C81.9057 1.58395 82.3055 1.66003 82.679 1.81039C83.0525 1.96074 83.3924 2.18243 83.6793 2.46279C83.9663 2.74315 84.1946 3.07669 84.3512 3.44437C84.5079 3.81205 84.5899 4.20667 84.5924 4.60569L84.8399 42.3232C84.8447 43.1289 84.5263 43.9036 83.9545 44.4771C83.3828 45.0507 82.6044 45.3763 81.7902 45.3824Z" fill="white"/>
<path d="M99.0697 62.219C95.0472 62.2479 91.1087 61.0807 87.7645 58.8686C87.4339 58.6507 87.15 58.3704 86.9289 58.0439C86.7078 57.7173 86.5539 57.3509 86.4759 56.9655C86.3979 56.58 86.3974 56.1832 86.4744 55.7976C86.5513 55.412 86.7043 55.0451 86.9246 54.718C87.1448 54.3909 87.428 54.1099 87.758 53.8911C88.088 53.6723 88.4583 53.52 88.8477 53.4428C89.2372 53.3657 89.6382 53.3651 90.0279 53.4413C90.4176 53.5175 90.7882 53.6689 91.1188 53.8869C93.7433 55.6136 96.876 56.4221 100.018 56.1838C103.161 55.9455 106.132 54.6741 108.46 52.5719C110.789 50.4696 112.339 47.6573 112.866 44.5823C113.393 41.5074 112.865 38.3464 111.368 35.6023C109.87 32.8582 107.488 30.6886 104.6 29.4387C101.713 28.1888 98.4858 27.9303 95.4328 28.7045C92.3799 29.4787 89.6762 31.241 87.752 33.711C85.8278 36.1811 84.7935 39.217 84.8138 42.3358C84.828 42.736 84.7609 43.135 84.6166 43.5092C84.4722 43.8833 84.2534 44.225 83.9733 44.514C83.6931 44.803 83.3572 45.0334 82.9855 45.1917C82.6138 45.35 82.2137 45.4329 81.809 45.4355C81.4043 45.4381 81.0032 45.3603 80.6295 45.2068C80.2557 45.0533 79.9168 44.8271 79.6329 44.5417C79.349 44.2563 79.1258 43.9175 78.9766 43.5452C78.8274 43.1729 78.7551 42.7748 78.764 42.3744C78.7399 38.4264 79.8992 34.5599 82.0953 31.2637C84.2914 27.9675 87.4257 25.3896 91.102 23.856C94.7783 22.3223 98.8316 21.9018 102.749 22.6474C106.667 23.393 110.274 25.2714 113.113 28.0451C115.952 30.8188 117.897 34.3633 118.701 38.2304C119.505 42.0976 119.132 46.1138 117.63 49.7714C116.128 53.429 113.563 56.5637 110.261 58.7793C106.959 60.9949 103.067 62.1919 99.0775 62.219H99.0697Z" fill="white"/>
<path d="M143.882 41.8512C143.623 41.853 143.367 41.8044 143.128 41.7079C142.889 41.6115 142.672 41.4693 142.488 41.2893L126.688 25.857C126.504 25.6774 126.358 25.4638 126.258 25.2283C126.157 24.9928 126.105 24.7401 126.103 24.4845C126.101 24.2289 126.15 23.9755 126.248 23.7387C126.345 23.5019 126.488 23.2864 126.67 23.1045C126.851 22.9226 127.067 22.7778 127.305 22.6785C127.543 22.5791 127.799 22.5271 128.057 22.5254C128.315 22.5238 128.571 22.5724 128.81 22.6687C129.05 22.765 129.267 22.9069 129.451 23.0865L145.251 38.5214C145.528 38.7919 145.717 39.1374 145.796 39.5144C145.874 39.8913 145.837 40.2827 145.69 40.6391C145.544 40.9955 145.294 41.3009 144.972 41.5166C144.65 41.7324 144.27 41.8488 143.882 41.8512Z" fill="white"/>
<path d="M128.186 41.9518C127.797 41.954 127.416 41.8422 127.092 41.6305C126.767 41.4188 126.514 41.1166 126.363 40.7623C126.212 40.4079 126.17 40.0172 126.243 39.6395C126.317 39.2618 126.501 38.914 126.774 38.6401L142.369 23.0042C142.738 22.649 143.232 22.4512 143.747 22.4531C144.262 22.4551 144.755 22.6567 145.121 23.0147C145.488 23.3726 145.697 23.8584 145.706 24.3677C145.714 24.877 145.52 25.3692 145.166 25.7386L129.568 41.3745C129.388 41.5561 129.173 41.7006 128.935 41.7997C128.698 41.8988 128.443 41.9505 128.186 41.9518Z" fill="white"/>
<path d="M152.101 55.0444C151.58 55.0471 151.079 54.8451 150.708 54.4827C150.338 54.1203 150.128 53.6271 150.124 53.1115L149.983 31.8752C149.98 31.3592 150.184 30.8629 150.55 30.4956C150.916 30.1282 151.415 29.92 151.937 29.9165C152.458 29.9131 152.96 30.1149 153.331 30.4773C153.702 30.8398 153.912 31.3334 153.916 31.8495L154.054 53.0831C154.057 53.5994 153.854 54.096 153.487 54.4637C153.121 54.8315 152.622 55.0403 152.101 55.0444Z" fill="white"/>
<path d="M160.393 42.1116C158.348 42.1248 156.345 41.5377 154.637 40.4245C152.929 39.3113 151.593 37.722 150.798 35.8576C150.003 33.9931 149.784 31.9372 150.169 29.9496C150.554 27.9621 151.526 26.1322 152.962 24.6913C154.398 23.2504 156.234 22.2632 158.237 21.8545C160.24 21.4457 162.32 21.6338 164.215 22.3949C166.11 23.1561 167.734 24.456 168.882 26.1306C170.031 27.8051 170.652 29.779 170.667 31.8027C170.684 34.5175 169.612 37.1281 167.685 39.061C165.759 40.9939 163.136 42.0911 160.393 42.1116ZM160.283 25.5349C159.015 25.5426 157.778 25.9223 156.728 26.626C155.678 27.3296 154.862 28.3257 154.384 29.4882C153.906 30.6506 153.787 31.9273 154.042 33.1567C154.297 34.386 154.915 35.5129 155.817 36.3947C156.72 37.2766 157.866 37.8738 159.112 38.1108C160.357 38.3479 161.646 38.2141 162.814 37.7264C163.983 37.2387 164.979 36.419 165.677 35.371C166.374 34.3231 166.742 33.0938 166.734 31.8388C166.722 30.1568 166.036 28.5484 164.826 27.3666C163.617 26.1848 161.983 25.526 160.283 25.5349Z" fill="white"/>
<path d="M3.71369 45.3978H3.66421C2.82466 45.4034 2.01649 45.0824 1.41389 44.5039C0.811283 43.9254 0.462496 43.1357 0.442705 42.3051V42.2432C0.442705 42.1556 0.442705 42.068 0.442705 41.9855C0.400549 39.3435 0.887818 36.7193 1.87637 34.2647C2.86491 31.81 4.33515 29.5735 6.20213 27.6844C8.06911 25.7953 10.2958 24.291 12.7537 23.2584C15.2115 22.2258 17.8517 21.6854 20.5218 21.6684C23.1919 21.6514 25.839 22.1581 28.3101 23.1592C30.7811 24.1604 33.0273 25.6362 34.9187 27.5013C36.8101 29.3665 38.3093 31.584 39.3298 34.0259C40.3502 36.4677 40.8716 39.0854 40.8638 41.7278C40.8638 41.8154 40.8638 41.9056 40.8638 41.9855V42.0448C40.857 42.8777 40.5195 43.6746 39.924 44.2634C39.3286 44.8521 38.5231 45.1855 37.6814 45.1916H37.6345C36.7852 45.1841 35.9735 44.8434 35.3778 44.2442C34.7821 43.645 34.451 42.8364 34.4573 41.9958V41.7562C34.4328 38.1335 32.9551 34.6689 30.3492 32.1244C27.7434 29.58 24.2228 28.1641 20.5621 28.1884C16.9014 28.2127 13.4004 29.675 10.8292 32.2538C8.25803 34.8326 6.82734 38.3165 6.85186 41.9391V42.1737" fill="white"/>
<path d="M54.7968 63.9999C49.4381 64.0294 44.2866 61.9536 40.4728 58.2283C36.659 54.503 34.4947 49.4324 34.4547 44.1295C34.4547 44.0367 34.4365 41.1863 34.4391 41.0936V41.0291C34.4498 40.1884 34.7976 39.3863 35.4059 38.7993C36.0142 38.2123 36.8332 37.8885 37.6827 37.8991C38.5323 37.9097 39.3428 38.2538 39.936 38.8558C40.5291 39.4578 40.8563 40.2683 40.8456 41.109V44.0934C40.8702 47.7161 42.3479 51.1807 44.9537 53.7252C47.5596 56.2696 51.0801 57.6855 54.7408 57.6612C58.4015 57.6369 61.9025 56.1746 64.4737 53.5958C67.0449 51.017 68.4756 47.5331 68.451 43.9105L68.425 40.9132C68.4075 40.0743 68.7265 39.2628 69.3122 38.6561C69.8979 38.0495 70.7026 37.6971 71.5501 37.6762H71.597C72.444 37.6631 73.2617 37.9824 73.8713 38.5644C74.4808 39.1464 74.8327 39.9437 74.8498 40.7817V40.8358C74.8498 40.926 74.8758 43.779 74.8758 43.8692C74.9043 49.1718 72.8063 54.269 69.0421 58.0428C65.278 61.8167 60.1549 63.959 54.7968 63.9999Z" fill="white"/>
</g>
<defs>
<clipPath id="clip0_298_55">
<rect width="170.667" height="64" fill="white"/>
</clipPath>
</defs>
</svg>
