<svg width="51" height="51" viewBox="0 0 51 51" fill="none" xmlns="http://www.w3.org/2000/svg">
<path d="M6.28686 44.1023L26.281 44.1108C26.7142 44.1108 27.1177 44.1915 27.4829 44.3529C27.8524 44.5143 28.1709 44.7351 28.4469 45.0196C28.723 45.3042 28.9395 45.6269 29.0967 45.9964C29.2581 46.3659 29.3388 46.7651 29.3388 47.1983C29.3388 48.0859 29.0457 48.8588 28.4597 49.4236C27.8736 49.9885 27.1644 50.3027 26.298 50.3027H3.11021C2.85965 50.3027 2.35003 50.2135 2.26085 50.1881C1.61957 50.0182 1.07173 49.6402 0.655537 49.1094C0.239346 48.5828 0.03125 47.9585 0.03125 47.2408L0.0567301 23.6368C0.0567301 23.2036 0.137423 22.8001 0.298804 22.4349C0.460184 22.0654 0.676772 21.7512 0.948571 21.4879C1.22037 21.2246 1.54737 21.0122 1.92534 20.8508C2.30331 20.6895 2.7832 20.6088 3.1994 20.6088C3.63257 20.6088 4.0063 20.6895 4.37578 20.8508C4.74526 21.0122 5.06801 21.2246 5.35255 21.4879C5.63709 21.7512 5.85793 22.0697 6.01931 22.4349C6.18069 22.8044 6.26138 23.2036 6.26138 23.6368L6.28686 44.1023Z" fill="#fff"/>
<path d="M25.2023 31.4722C28.6267 31.4722 31.4027 28.6962 31.4027 25.2718C31.4027 21.8474 28.6267 19.0714 25.2023 19.0714C21.778 19.0714 19.002 21.8474 19.002 25.2718C19.002 28.6962 21.778 31.4722 25.2023 31.4722Z" fill="#fff"/>
<path d="M43.799 6.7004L23.8048 6.69191C23.3716 6.69191 22.9682 6.61121 22.6029 6.44983C22.2335 6.28845 21.915 6.06762 21.6389 5.78308C21.3629 5.49854 21.1463 5.17578 20.9891 4.8063C20.8278 4.43683 20.7471 4.03762 20.7471 3.60444C20.7471 2.71685 21.0401 1.94393 21.6262 1.3791C22.2122 0.81427 22.9215 0.5 23.7878 0.5H46.9756C47.2262 0.5 47.7358 0.589186 47.825 0.614667C48.4662 0.784541 49.0141 1.16251 49.4303 1.69336C49.8465 2.21997 50.0546 2.84426 50.0546 3.56198L50.0291 27.166C50.0291 27.5991 49.9484 28.0026 49.787 28.3678C49.6256 28.7373 49.409 29.0516 49.1373 29.3149C48.8655 29.5782 48.5385 29.7905 48.1605 29.9519C47.7825 30.1133 47.3026 30.194 46.8864 30.194C46.4532 30.194 46.0795 30.1133 45.71 29.9519C45.3406 29.7905 45.0178 29.5782 44.7333 29.3149C44.4487 29.0516 44.2279 28.733 44.0665 28.3678C43.9051 27.9983 43.8244 27.5991 43.8244 27.166L43.799 6.7004Z" fill="#fff"/>
</svg>
